<svg width="92" height="24" viewBox="0 0 92 24" fill="none" xmlns="http://www.w3.org/2000/svg">
<path opacity="0.4" d="M12 22C17.5228 22 22 17.5228 22 12C22 6.47715 17.5228 2 12 2C6.47715 2 2 6.47715 2 12C2 17.5228 6.47715 22 12 22Z" fill="white"/>
<path d="M15.71 15.93C15.58 15.93 15.45 15.9 15.33 15.82L12.23 13.97C11.46 13.51 10.89 12.5 10.89 11.61V7.51001C10.89 7.10001 11.23 6.76001 11.64 6.76001C12.05 6.76001 12.39 7.10001 12.39 7.51001V11.61C12.39 11.97 12.69 12.5 13 12.68L16.1 14.53C16.46 14.74 16.57 15.2 16.36 15.56C16.21 15.8 15.96 15.93 15.71 15.93Z" fill="white"/>
<path d="M41.904 18V16.096H36.8V14.296L40.488 6.48H42.688L39 14.296H41.904V11.296H43.856V14.296H44.936V16.096H43.856V18H41.904ZM47.4944 16.96V14.984H49.4704V16.96H47.4944ZM47.5104 12.376V10.4H49.4864V12.376H47.5104ZM56.4828 18.24C55.6668 18.24 54.9468 18.0667 54.3228 17.72C53.6988 17.368 53.2108 16.88 52.8588 16.256C52.5121 15.632 52.3388 14.912 52.3388 14.096V10.384C52.3388 9.568 52.5121 8.848 52.8588 8.224C53.2108 7.6 53.6988 7.11467 54.3228 6.768C54.9468 6.416 55.6668 6.24 56.4828 6.24C57.2988 6.24 58.0161 6.416 58.6348 6.768C59.2588 7.11467 59.7468 7.6 60.0988 8.224C60.4508 8.848 60.6267 9.568 60.6267 10.384V14.096C60.6267 14.912 60.4508 15.632 60.0988 16.256C59.7468 16.88 59.2588 17.368 58.6348 17.72C58.0161 18.0667 57.2988 18.24 56.4828 18.24ZM56.4828 16.408C56.8881 16.408 57.2561 16.312 57.5868 16.12C57.9174 15.9227 58.1788 15.6613 58.3708 15.336C58.5628 15.0053 58.6588 14.6373 58.6588 14.232V10.24C58.6588 9.82933 58.5628 9.46133 58.3708 9.136C58.1788 8.80533 57.9174 8.544 57.5868 8.352C57.2561 8.15467 56.8881 8.056 56.4828 8.056C56.0774 8.056 55.7094 8.15467 55.3788 8.352C55.0481 8.544 54.7868 8.80533 54.5948 9.136C54.4028 9.46133 54.3068 9.82933 54.3068 10.24V14.232C54.3068 14.6373 54.4028 15.0053 54.5948 15.336C54.7868 15.6613 55.0481 15.9227 55.3788 16.12C55.7094 16.312 56.0774 16.408 56.4828 16.408ZM63.454 18L67.422 8.304H62.39V6.48H69.486V8.304L65.534 18H63.454Z" fill="white"/>
</svg>
