<svg width="18" height="16" viewBox="0 0 18 16" fill="none" xmlns="http://www.w3.org/2000/svg">
<path d="M5.625 9.125H5.0625C3.81973 9.125 2.8125 10.134 2.8125 11.3792V13.6208C2.8125 14.8657 3.81973 15.875 5.0625 15.875H5.625C6.24621 15.875 6.75 15.3702 6.75 14.7479V10.2521C6.75 9.62949 6.24621 9.125 5.625 9.125ZM12.9375 9.125H12.375C11.7538 9.125 11.25 9.62949 11.25 10.2521V14.7479C11.25 15.3702 11.7538 15.875 12.375 15.875H12.9375C14.1803 15.875 15.1875 14.8657 15.1875 13.6208V11.3792C15.1875 10.1343 14.1803 9.125 12.9375 9.125ZM9 0.125C3.96949 0.125 0.160664 4.31316 0 9.125V13.0625C0 13.3733 0.251719 13.625 0.5625 13.625H1.125C1.43578 13.625 1.6875 13.3733 1.6875 13.0625V9.125C1.6875 5.09363 4.96863 1.81953 9 1.81883C13.0314 1.81953 16.3125 5.09363 16.3125 9.125V13.0625C16.3125 13.3733 16.5642 13.625 16.875 13.625H17.4375C17.7483 13.625 18 13.3733 18 13.0625V9.125C17.8393 4.31316 14.0305 0.125 9 0.125Z" fill="white"/>
</svg>
