<svg width="122" height="64" viewBox="0 0 122 64" fill="none" xmlns="http://www.w3.org/2000/svg">
<rect x="1" y="1" width="120" height="62" rx="31" stroke="#333333" stroke-width="2"/>
<path fill-rule="evenodd" clip-rule="evenodd" d="M24.0899 25.965C25.0275 25.0277 26.2991 24.5011 27.6249 24.5011C28.9507 24.5011 30.2223 25.0277 31.1599 25.965L32.6249 27.4288L34.0899 25.965C34.5511 25.4875 35.1029 25.1066 35.7129 24.8445C36.3229 24.5825 36.979 24.4446 37.6429 24.4388C38.3068 24.433 38.9652 24.5595 39.5797 24.8109C40.1942 25.0623 40.7524 25.4336 41.2219 25.9031C41.6913 26.3725 42.0626 26.9308 42.314 27.5453C42.5654 28.1598 42.6919 28.8181 42.6862 29.482C42.6804 30.1459 42.5425 30.802 42.2804 31.4121C42.0184 32.0221 41.6375 32.5738 41.1599 33.035L32.6249 41.5713L24.0899 33.035C23.1526 32.0974 22.626 30.8259 22.626 29.5C22.626 28.1742 23.1526 26.9027 24.0899 25.965Z" fill="#2BD268"/>
<path d="M88.572 22.4904L98.829 29.3306C99.2684 29.6236 99.6287 30.0237 99.8779 30.4894C100.127 30.955 100.257 31.475 100.257 32.0031C100.257 32.5313 100.127 33.0512 99.8779 33.5169C99.6287 33.9825 99.2684 34.3795 98.829 34.6725L88.572 41.5126C88.0888 41.835 87.5272 42.0201 86.947 42.0483C86.3668 42.0765 85.7899 41.9467 85.2778 41.6726C84.7656 41.3986 84.3375 40.9907 84.039 40.4924C83.7405 39.9941 83.5829 39.4241 83.583 38.8433V25.1662C83.5818 24.5848 83.7385 24.014 84.0365 23.5148C84.3345 23.0156 84.7626 22.6067 85.2749 22.3319C85.7873 22.0571 86.3647 21.9267 86.9454 21.9546C87.5261 21.9825 88.0883 22.1677 88.572 22.4904Z" fill="white" stroke="white" stroke-width="2" stroke-linecap="round" stroke-linejoin="round"/>
<path d="M116.677 43.05C118.128 39.5467 118.875 35.7919 118.875 32C118.875 24.3419 115.833 16.9974 110.418 11.5823C105.003 6.16718 97.6581 3.125 90 3.125C82.3419 3.125 74.9974 6.16718 69.5823 11.5823C64.1672 16.9974 61.125 24.3419 61.125 32C61.125 35.7919 61.8719 39.5467 63.323 43.05C64.7741 46.5533 66.901 49.7364 69.5823 52.4177C72.2636 55.099 75.4467 57.2259 78.95 58.677C82.4533 60.1281 86.2081 60.875 90 60.875C93.7919 60.875 97.5467 60.1281 101.05 58.677C104.553 57.2259 107.736 55.099 110.418 52.4177C113.099 49.7364 115.226 46.5533 116.677 43.05Z" stroke="white" stroke-width="2" stroke-linecap="round" stroke-linejoin="round"/>
</svg>
