<svg width="240" height="48" viewBox="0 0 240 48" fill="none" xmlns="http://www.w3.org/2000/svg">
<path opacity="0.4" d="M21.75 29.98C21.75 29.96 21.74 29.94 21.74 29.92C21.73 29.84 21.72 29.76 21.69 29.69C21.65 29.6 21.6 29.53 21.54 29.46C21.54 29.46 21.54 29.45 21.53 29.45C21.46 29.38 21.38 29.3299 21.29 29.2899C21.2 29.2499 21.1 29.23 21 29.23L16.33 29.25C16.33 29.25 16.33 29.25 16.32 29.25C15.72 29.25 15.14 28.97 14.78 28.49L13.56 26.92C13.31 26.59 12.84 26.5299 12.51 26.7899C12.18 27.0499 12.12 27.51 12.38 27.84L13.6 29.4099C14.25 30.2499 15.27 30.75 16.33 30.75H16.34L19.19 30.74L18.48 31.45C18.19 31.74 18.19 32.22 18.48 32.51C18.63 32.66 18.82 32.73 19.01 32.73C19.2 32.73 19.39 32.66 19.54 32.51L21.54 30.51C21.61 30.44 21.66 30.36 21.7 30.27C21.73 30.17 21.75 30.07 21.75 29.98Z" fill="white"/>
<path opacity="0.4" d="M8.42001 18.69C7.77001 17.79 6.73 17.26 5.62 17.26C5.61 17.26 5.61001 17.26 5.60001 17.26L2.98999 17.27C2.57999 17.27 2.23999 17.61 2.23999 18.02C2.23999 18.43 2.57999 18.77 2.98999 18.77L5.60001 18.76H5.60999C6.23999 18.76 6.83 19.06 7.19 19.57L8.26999 21.07C8.41999 21.27 8.65 21.38 8.88 21.38C9.03 21.38 9.19001 21.33 9.32001 21.24C9.66001 21 9.72999 20.53 9.48999 20.19L8.42001 18.69Z" fill="white"/>
<path d="M21.74 18.08C21.74 18.06 21.75 18.04 21.75 18.03C21.75 17.93 21.73 17.83 21.69 17.74C21.65 17.65 21.6 17.57 21.53 17.5L19.53 15.5C19.24 15.21 18.76 15.21 18.47 15.5C18.18 15.79 18.18 16.27 18.47 16.56L19.18 17.27L16.45 17.26C16.44 17.26 16.44 17.26 16.43 17.26C15.28 17.26 14.2 17.83 13.56 18.8L7.17001 28.38C6.81001 28.92 6.19999 29.25 5.54999 29.25H5.54001L2.98999 29.24C2.57999 29.24 2.23999 29.57 2.23999 29.99C2.23999 30.4 2.56999 30.74 2.98999 30.74L5.54001 30.75C5.55001 30.75 5.55 30.75 5.56 30.75C6.72 30.75 7.78999 30.18 8.42999 29.21L14.82 19.63C15.18 19.09 15.79 18.76 16.44 18.76H16.45L21 18.78C21.1 18.78 21.19 18.7599 21.29 18.7199C21.38 18.6799 21.46 18.63 21.53 18.56C21.53 18.56 21.53 18.55 21.54 18.55C21.6 18.48 21.66 18.41 21.69 18.32C21.72 18.24 21.73 18.16 21.74 18.08Z" fill="white"/>
<path opacity="0.4" d="M70 20.34V27.66C70 29.16 68.37 30.1 67.07 29.35L63.9 27.5199L60.73 25.69L60.24 25.41V22.59L60.73 22.31L63.9 20.48L67.07 18.6499C68.37 17.8999 70 18.84 70 20.34Z" fill="white"/>
<path d="M60.24 20.34V27.66C60.24 29.16 58.61 30.1 57.32 29.35L54.14 27.5199L50.97 25.69C49.68 24.94 49.68 23.06 50.97 22.31L54.14 20.48L57.32 18.6499C58.61 17.8999 60.24 18.84 60.24 20.34Z" fill="white"/>
<path d="M119.94 44C130.986 44 139.94 35.0457 139.94 24C139.94 12.9543 130.986 4 119.94 4C108.894 4 99.94 12.9543 99.94 24C99.94 35.0457 108.894 44 119.94 44Z" fill="white"/>
<path d="M117.44 30.06V17.94C117.44 16.98 117.04 16.6 116.02 16.6H113.42C112.4 16.6 112 16.98 112 17.94V30.06C112 31.02 112.4 31.4 113.42 31.4H116C117.04 31.4 117.44 31.02 117.44 30.06Z" fill="#060606"/>
<path d="M128 30.06V17.94C128 16.98 127.6 16.6 126.58 16.6H124C122.98 16.6 122.58 16.98 122.58 17.94V30.06C122.58 31.02 122.98 31.4 124 31.4H126.58C127.6 31.4 128 31.02 128 30.06Z" fill="#060606"/>
<path opacity="0.4" d="M170 20.34V27.66C170 29.16 171.63 30.1 172.93 29.35L176.1 27.5199L179.27 25.69L179.76 25.41V22.59L179.27 22.31L176.1 20.48L172.93 18.6499C171.63 17.8999 170 18.84 170 20.34Z" fill="white"/>
<path d="M179.76 20.34V27.66C179.76 29.16 181.39 30.1 182.68 29.35L185.86 27.5199L189.03 25.69C190.32 24.94 190.32 23.06 189.03 22.31L185.86 20.48L182.68 18.6499C181.39 17.8999 179.76 18.84 179.76 20.34Z" fill="white"/>
<path d="M219.91 29.18C219.72 29.18 219.53 29.11 219.38 28.96C218.01 27.58 217.25 25.76 217.25 23.83C217.25 19.82 220.5 16.56 224.5 16.56L230.57 16.58L229.48 15.54C229.18 15.25 229.17 14.78 229.46 14.48C229.75 14.18 230.22 14.17 230.52 14.46L232.96 16.8C233.18 17.01 233.25 17.34 233.14 17.62C233.03 17.9 232.75 18.09 232.44 18.09L224.49 18.07C221.32 18.07 218.74 20.66 218.74 23.84C218.74 25.37 219.34 26.82 220.43 27.91C220.72 28.2 220.72 28.68 220.43 28.97C220.29 29.11 220.1 29.18 219.91 29.18Z" fill="white"/>
<path d="M226 33.75C225.81 33.75 225.63 33.6799 225.48 33.5399L223.04 31.2C222.82 30.99 222.75 30.66 222.86 30.38C222.98 30.1 223.26 29.9499 223.56 29.9099L231.51 29.93C234.68 29.93 237.26 27.3399 237.26 24.1599C237.26 22.6299 236.66 21.18 235.57 20.09C235.28 19.8 235.28 19.32 235.57 19.03C235.86 18.74 236.34 18.74 236.63 19.03C238 20.41 238.76 22.2299 238.76 24.1599C238.76 28.1699 235.51 31.43 231.51 31.43L225.44 31.4099L226.53 32.45C226.83 32.74 226.84 33.21 226.55 33.51C226.39 33.67 226.2 33.75 226 33.75Z" fill="white"/>
<g opacity="0.4">
<path d="M228.25 27.42C227.84 27.42 227.5 27.08 227.5 26.67V23.28L227.31 23.49C227.03 23.8 226.56 23.82 226.25 23.55C225.94 23.28 225.92 22.8 226.19 22.49L227.69 20.82C227.9 20.59 228.23 20.51 228.52 20.62C228.81 20.73 229 21.01 229 21.32V26.67C229 27.09 228.66 27.42 228.25 27.42Z" fill="white"/>
</g>
</svg>
