<svg width="291" height="24" viewBox="0 0 291 24" fill="none" xmlns="http://www.w3.org/2000/svg">
<path d="M4.04988 18V7.792L1.88188 9.096V7.776L4.04988 6.48H5.24188V18H4.04988ZM8.91625 16.72V15.352H10.2843V16.72H8.91625ZM8.92425 12.008V10.64H10.2923V12.008H8.92425ZM18.1295 18V15.768H12.7375V14.648L16.5935 6.48H17.9135L14.0575 14.648H18.1295V11.288H19.3135V14.648H20.5695V15.768H19.3135V18H18.1295ZM25.895 18.24C25.2977 18.24 24.7457 18.1173 24.239 17.872C23.7323 17.6267 23.3003 17.288 22.943 16.856C22.5857 16.424 22.3297 15.928 22.175 15.368L23.303 15.064C23.4043 15.48 23.5883 15.84 23.855 16.144C24.1217 16.4427 24.4337 16.6747 24.791 16.84C25.1537 17.0053 25.5323 17.088 25.927 17.088C26.439 17.088 26.8977 16.9653 27.303 16.72C27.7137 16.4693 28.039 16.1387 28.279 15.728C28.519 15.3173 28.639 14.8667 28.639 14.376C28.639 13.8693 28.5137 13.4133 28.263 13.008C28.0123 12.5973 27.6817 12.272 27.271 12.032C26.8603 11.792 26.4123 11.672 25.927 11.672C25.383 11.672 24.9137 11.792 24.519 12.032C24.1243 12.2667 23.8097 12.5627 23.575 12.92L22.503 12.472L22.855 6.48H29.007V7.608H23.375L23.959 7.056L23.647 12.168L23.351 11.776C23.6817 11.3973 24.0817 11.1013 24.551 10.888C25.0203 10.6747 25.5137 10.568 26.031 10.568C26.7403 10.568 27.3803 10.7387 27.951 11.08C28.5217 11.416 28.975 11.872 29.311 12.448C29.647 13.024 29.815 13.6667 29.815 14.376C29.815 15.08 29.6363 15.7253 29.279 16.312C28.9217 16.8933 28.447 17.36 27.855 17.712C27.263 18.064 26.6097 18.24 25.895 18.24ZM37.8445 6.48H39.0525L35.9805 18H34.7725L37.8445 6.48ZM49.4108 18V15.768H44.0188V14.648L47.8748 6.48H49.1948L45.3388 14.648H49.4108V11.288H50.5948V14.648H51.8507V15.768H50.5948V18H49.4108ZM54.4163 16.72V15.352H55.7843V16.72H54.4163ZM54.4243 12.008V10.64H55.7923V12.008H54.4243ZM63.6295 18V15.768H58.2375V14.648L62.0935 6.48H63.4135L59.5575 14.648H63.6295V11.288H64.8135V14.648H66.0695V15.768H64.8135V18H63.6295ZM67.675 17.992L67.683 16.92L72.891 12.216C73.339 11.8107 73.635 11.4267 73.779 11.064C73.9283 10.696 74.003 10.312 74.003 9.912C74.003 9.43733 73.891 9.008 73.667 8.624C73.443 8.24 73.1417 7.936 72.763 7.712C72.3843 7.48267 71.9603 7.368 71.491 7.368C71.0003 7.368 70.563 7.48533 70.179 7.72C69.795 7.95467 69.491 8.264 69.267 8.648C69.0483 9.032 68.9417 9.45067 68.947 9.904H67.747C67.747 9.20533 67.9123 8.57867 68.243 8.024C68.5737 7.46933 69.0217 7.03467 69.587 6.72C70.1523 6.4 70.7923 6.24 71.507 6.24C72.2057 6.24 72.8323 6.40533 73.387 6.736C73.947 7.06133 74.387 7.504 74.707 8.064C75.0323 8.61867 75.195 9.23733 75.195 9.92C75.195 10.4 75.1363 10.824 75.019 11.192C74.907 11.5547 74.7283 11.8933 74.483 12.208C74.243 12.5173 73.9363 12.8373 73.563 13.168L68.939 17.344L68.755 16.864H75.195V17.992H67.675Z" fill="#949494"/>
<path d="M118 16.75C117.84 16.75 117.69 16.7 117.55 16.6C117.22 16.35 117.15 15.88 117.4 15.55C118.97 13.46 118.97 10.54 117.4 8.45003C117.15 8.12003 117.22 7.65003 117.55 7.40003C117.88 7.15003 118.35 7.22003 118.6 7.55003C120.56 10.17 120.56 13.83 118.6 16.45C118.45 16.65 118.23 16.75 118 16.75Z" fill="white"/>
<path d="M119.83 19.25C119.67 19.25 119.52 19.2 119.38 19.1C119.05 18.85 118.98 18.38 119.23 18.05C121.9 14.49 121.9 9.51003 119.23 5.95003C118.98 5.62003 119.05 5.15003 119.38 4.90003C119.71 4.65003 120.18 4.72003 120.43 5.05003C123.5 9.14003 123.5 14.86 120.43 18.95C120.29 19.15 120.06 19.25 119.83 19.25Z" fill="white"/>
<path opacity="0.4" d="M115.75 7.41003V16.59C115.75 18.31 115.13 19.6 114.02 20.22C113.57 20.47 113.07 20.59 112.55 20.59C111.75 20.59 110.89 20.32 110.01 19.77L107.09 17.94C106.89 17.82 106.66 17.75 106.43 17.75H105.5V6.25003H106.43C106.66 6.25003 106.89 6.18003 107.09 6.06003L110.01 4.23003C111.47 3.32003 112.9 3.16003 114.02 3.78003C115.13 4.40003 115.75 5.69003 115.75 7.41003Z" fill="white"/>
<path d="M105.5 6.25V17.75H105C102.58 17.75 101.25 16.42 101.25 14V10C101.25 7.58 102.58 6.25 105 6.25H105.5Z" fill="white"/>
<rect x="136" y="10" width="99" height="4" rx="2" fill="#656565"/>
<rect x="136" y="10" width="77" height="4" rx="2" fill="white"/>
<path d="M269 3H289" stroke="white" stroke-width="1.5" stroke-miterlimit="10" stroke-linecap="round" stroke-linejoin="round"/>
<path d="M269 9H278" stroke="white" stroke-width="1.5" stroke-miterlimit="10" stroke-linecap="round" stroke-linejoin="round"/>
<path d="M269 15H275" stroke="white" stroke-width="1.5" stroke-miterlimit="10" stroke-linecap="round" stroke-linejoin="round"/>
<path d="M269 21H273" stroke="white" stroke-width="1.5" stroke-miterlimit="10" stroke-linecap="round" stroke-linejoin="round"/>
<path d="M278.84 22C280.044 22 281.02 21.024 281.02 19.82C281.02 18.616 280.044 17.64 278.84 17.64C277.636 17.64 276.66 18.616 276.66 19.82C276.66 21.024 277.636 22 278.84 22Z" stroke="white" stroke-width="1.5" stroke-linecap="round" stroke-linejoin="round"/>
<path d="M289 18.37V9.85999C289 8.04999 287.86 7.79999 286.71 8.10999L282.36 9.3C281.57 9.52 281.02 10.14 281.02 11.05V12.57V13.59V19.82" stroke="white" stroke-width="1.5" stroke-linecap="round" stroke-linejoin="round"/>
<path d="M286.82 20.55C288.024 20.55 289 19.574 289 18.37C289 17.166 288.024 16.19 286.82 16.19C285.616 16.19 284.64 17.166 284.64 18.37C284.64 19.574 285.616 20.55 286.82 20.55Z" stroke="white" stroke-width="1.5" stroke-linecap="round" stroke-linejoin="round"/>
<path d="M281.02 13.6L289 11.42" stroke="white" stroke-width="1.5" stroke-linecap="round" stroke-linejoin="round"/>
</svg>
